PathFileType	4	(X/Y/Z)	c:\Git\powerlifing_model_clean\simulations\HC835B\Session1\HC835B_OGW_0001\marker_experimental.trc
DataRate	CameraRate	NumFrames	NumMarkers	Units	OrigDataRate	OrigDataStartFrame	OrigNumFrames
240.000000	240.000000	4	38	mm	240.000000	270	433
Frame#	Time	RPSI			LPSI			RASI			LASI			RTH1			RTH2			RTH3			RTH4			RSK1			RSK2			RSK3			RSK4			RCAL1			RCAL2			RCAL3			RST			RPT			RTN			RFMB			RSMB			RVMB			RFMH			RSMH			RVMH			RPM			LTH1			LTH2			LTH3			LTH4			LSK1			LSK2			LSK3			LSK4			LCAL1			LCAL2			LCAL3			LFMH			LVMH			
		X1	Y1	Z1	X2	Y2	Z2	X3	Y3	Z3	X4	Y4	Z4	X5	Y5	Z5	X6	Y6	Z6	X7	Y7	Z7	X8	Y8	Z8	X9	Y9	Z9	X10	Y10	Z10	X11	Y11	Z11	X12	Y12	Z12	X13	Y13	Z13	X14	Y14	Z14	X15	Y15	Z15	X16	Y16	Z16	X17	Y17	Z17	X18	Y18	Z18	X19	Y19	Z19	X20	Y20	Z20	X21	Y21	Z21	X22	Y22	Z22	X23	Y23	Z23	X24	Y24	Z24	X25	Y25	Z25	X26	Y26	Z26	X27	Y27	Z27	X28	Y28	Z28	X29	Y29	Z29	X30	Y30	Z30	X31	Y31	Z31	X32	Y32	Z32	X33	Y33	Z33	X34	Y34	Z34	X35	Y35	Z35	X36	Y36	Z36	X37	Y37	Z37	X38	Y38	Z38	

271	1.125	448.2578125000001	1075.757934570313	-601.8895874023439	557.8013305664064	1081.030029296875	-602.9437866210939	399.0977172851564	1046.766479492188	-386.5311584472657	643.4975585937501	1037.49462890625	-400.472869873047	322.4648132324219	782.1094970703127	-371.1564636230469	333.3679809570313	795.106872558594	-313.0413513183594	335.4357299804688	716.6287841796876	-318.9282226562501	356.6715698242188	727.7512817382814	-265.5670471191407	390.5754699707032	278.6440734863282	-232.5367126464844	381.9537353515626	284.0272216796876	-171.6263275146485	393.249725341797	230.3414154052735	-199.3685913085938	397.1345520019532	236.7196502685547	-139.5029754638672	461.3820800781251	87.89161682128908	-198.9204711914063	491.0676879882814	52.07390594482423	-181.465072631836	427.9369201660157	51.47016906738283	-192.6949005126954	497.0870666503907	76.51448822021486	-115.5151596069336	395.8458557128907	70.78343963623048	-140.0988311767578	475.1316833496095	109.3389282226563	-69.8255081176758	468.2957763671876	100.0458984375	-35.86339950561524	419.2500000000001	123.3241882324219	-36.74347305297852	382.4135131835938	52.89130783081056	-93.0148162841797	467.1672668457032	82.07714843750001	19.2592887878418	411.3589477539064	101.8797378540039	26.30969810485841	362.0896911621094	59.24539184570314	-18.5241870880127	415.5773315429689	109.5858993530274	79.89331817626955	699.2069702148439	782.893981933594	-559.0678710937501	693.1565551757814	756.1147460937501	-504.9875793457032	691.1279907226564	697.7814941406251	-561.1023559570314	671.8997192382814	672.1350097656251	-508.5500488281251	652.1682128906251	332.4851074218751	-842.4063720703127	658.7937011718751	290.1494750976563	-810.5444946289065	649.1200561523439	278.1012268066407	-858.0571289062502	641.2176513671876	235.7903594970704	-821.451843261719	589.9744873046876	173.6295013427735	-987.007263183594	617.4298706054689	137.2109375	-1001.845886230469	558.4644165039064	138.7794036865235	-997.185241699219	556.2719726562501	56.41240692138673	-794.845886230469	659.3792114257814	37.97515869140626	-844.8481445312502	
272	1.129166666666667	447.9843139648439	1075.761108398438	-594.2935180664064	557.4514770507814	1080.660400390625	-595.1764526367189	398.2187805175782	1047.049682617188	-378.6673278808594	642.4528808593751	1036.544555664063	-392.328338623047	322.2425537109376	782.1797485351565	-363.1912231445313	332.3607177734376	794.898864746094	-304.9012756347657	335.7102355957032	716.5049438476564	-311.1473388671876	355.9715270996094	727.6815185546876	-257.4210815429688	389.6278381347657	279.3688659667969	-226.4583129882813	381.8912658691407	283.9986572265626	-165.2975158691407	392.4896240234376	230.6604003906251	-193.8587188720704	397.511444091797	236.3059387207032	-133.8517303466797	460.9354248046876	88.52368927001955	-197.1222229003907	491.0340270996095	52.75575637817384	-180.7273254394532	427.6449279785157	52.06564331054689	-191.5194244384766	497.0257263183595	75.96788787841798	-114.1124801635742	395.8428039550782	70.07227325439455	-138.474838256836	474.6806640625001	107.1421585083008	-67.3198928833008	468.6527099609376	97.46633911132815	-33.57061767578126	419.5294799804689	120.5333862304688	-33.74559020996094	382.5348510742188	51.40361404418947	-91.71862030029298	467.7883911132814	78.08380126953126	21.30504035949707	411.8240661621095	97.25175476074222	29.06053543090821	362.5463256835938	55.8931350708008	-16.70741271972657	416.4028625488282	103.6357574462891	83.00257873535158	698.4012451171876	781.6362304687502	-550.0381469726564	692.8079223632814	755.3459472656251	-495.7581481933595	691.0743408203126	696.7248535156251	-551.5866699218751	671.7812500000001	671.2832031250001	-498.9750976562501	652.5013427734376	334.9003601074219	-835.5859375000002	659.5383911132814	292.0237426757813	-804.467468261719	649.6040649414064	280.7330322265626	-852.1052856445315	642.0961303710939	237.6337432861329	-816.0396728515627	590.1296386718751	178.5017852783203	-981.8288574218752	617.1002197265626	142.6131439208985	-998.0432128906252	558.2363891601564	144.3029174804688	-992.8829345703127	556.2462158203126	56.33435058593751	-793.8847656250002	659.2573242187501	38.50560760498048	-844.3901977539065	
273	1.133333333333333	447.5722045898439	1075.8740234375	-586.6967773437501	557.1085205078126	1080.387573242188	-587.3193969726564	397.3411865234376	1047.3359375	-370.9591979980469	641.3997802734376	1035.728149414063	-384.2169189453126	321.9383850097657	782.3030395507815	-355.3095092773438	331.2319335937501	794.9538574218752	-296.7928771972657	336.0069274902344	716.4923095703126	-303.3456420898438	355.3872985839844	727.8923950195314	-249.3502655029297	388.4247131347657	280.2152404785157	-220.6504821777344	381.7666625976563	283.8775939941407	-159.4738311767578	391.4193420410157	231.2382049560547	-188.614501953125	397.8716430664064	235.7138214111329	-128.9373016357422	460.5050659179689	89.1554412841797	-195.6195678710938	490.9091796875001	53.28067779541017	-179.9664001464844	427.4692382812501	52.61570358276369	-190.6350250244141	496.7721557617189	75.57668304443361	-112.9548950195313	395.6791992187501	69.82588195800783	-136.9513092041016	474.639373779297	105.604850769043	-65.28017425537111	468.6467895507814	95.34830474853517	-31.59484672546387	419.4566345214845	118.221305847168	-31.35866355895997	382.4361572265626	50.05513000488283	-90.80914306640626	467.8665466308595	74.84811401367189	23.024169921875	411.8267822265626	93.49190521240236	31.144437789917	362.4902343750001	53.09833145141603	-15.21031856536866	416.5180664062501	98.55357360839847	85.6101760864258	698.5064697265626	780.763366699219	-540.6998901367189	692.8872680664064	754.5820922851564	-486.129608154297	691.4987792968751	695.7225952148439	-541.7223510742189	671.7633666992189	670.4841308593751	-489.1247558593751	652.7804565429689	337.3441162109376	-828.3480224609377	660.3651123046876	294.1978149414063	-798.0630493164065	650.1130981445314	283.3954772949219	-845.6990966796877	643.1369018554689	239.689193725586	-810.279724121094	590.1129150390626	184.2200927734375	-976.501892089844	616.7732543945314	148.2818756103516	-993.8391723632815	558.1558227539064	150.4301147460938	-988.0305786132815	556.2808227539064	56.40064239501955	-792.9790649414065	659.0877685546876	39.19687652587891	-843.7644042968752	
274	1.1375	447.0449829101564	1076.159423828125	-579.0964965820314	556.7270507812501	1080.132934570313	-579.7587890625001	396.4963989257814	1047.781860351563	-363.1904907226563	640.2758178710939	1035.006958007813	-376.0238342285157	321.6630554199219	782.5847167968752	-347.4808044433594	330.3863830566407	795.2362060546877	-288.8617553710938	336.1697387695313	716.9438476562501	-295.5234680175782	354.8966064453126	728.5143432617189	-241.2989044189454	385.9766540527345	281.6920471191407	-214.7330780029297	381.2887573242188	283.9292907714844	-153.7078094482422	390.6203613281251	231.2662811279297	-184.0777587890625	398.0968627929689	235.1800689697266	-124.2483444213867	460.5166625976564	89.78062438964845	-194.4225616455079	490.724090576172	53.65544509887697	-179.1812591552735	427.2956848144532	52.98718643188478	-190.0260772705078	496.4339599609376	75.26282501220705	-111.9349899291992	395.5543212890626	69.52375793457033	-135.9481811523438	474.3731384277345	104.4097442626953	-63.55967712402345	468.335174560547	93.6464309692383	-29.94560813903809	419.1575927734376	116.3715744018555	-29.48580169677735	382.0615844726563	49.37655258178712	-90.07800292968751	467.3802795410157	72.39528656005861	24.44407463073731	411.3634033203126	90.60366058349611	32.78820419311524	362.1381835937501	51.09250640869142	-14.17404460906983	416.0916137695314	94.34388732910158	87.54969787597658	698.2056884765626	779.811218261719	-531.2525024414064	692.5724487304689	753.9612426757814	-476.568328857422	691.5738525390626	694.7374267578126	-531.7764892578126	671.8322753906251	669.7365722656251	-479.0442199707032	653.2531127929689	339.7450256347657	-820.6354980468752	661.3606567382814	296.2967834472657	-791.1524658203127	650.7709350585939	286.1447448730469	-838.8709716796877	644.1714477539064	241.707504272461	-804.093200683594	590.0039672851564	189.5659637451172	-970.312683105469	616.7158203125001	154.7318115234375	-989.6467895507815	557.8705444335939	156.6642456054688	-982.752136230469	556.1719360351564	56.44575119018556	-791.9028930664065	658.9487304687501	39.99839782714844	-842.9836425781252	
